<svg width="78" height="21" viewBox="0 0 78 21" fill="none" xmlns="http://www.w3.org/2000/svg">
<path d="M14.9194 2.22395C15.3988 2.22395 15.8404 2.34381 16.2442 2.58353C16.6353 2.82325 16.9507 3.13868 17.1904 3.5298C17.4301 3.93353 17.55 4.37512 17.55 4.85456L17.5501 17.4271C17.5501 17.9066 17.4302 18.3418 17.1905 18.733C16.9508 19.1367 16.6353 19.4584 16.2442 19.6981C15.8405 19.9379 15.3989 20.0577 14.9194 20.0577L2.65035 20.0577C2.17092 20.0577 1.72933 19.9379 1.32559 19.6982C0.921857 19.4584 0.600125 19.1367 0.360406 18.733C0.120687 18.3419 0.000826944 17.9066 0.000826902 17.4271L0.000826725 15.4019L3.47596 15.4019L3.47596 16.3482C3.47596 16.4113 3.50119 16.4617 3.55166 16.4996C3.60212 16.5501 3.6589 16.5753 3.72198 16.5753L13.582 16.5753C13.6451 16.5753 13.7019 16.55 13.7523 16.4996C13.7902 16.4617 13.8091 16.4113 13.8091 16.3482L13.809 5.95825C13.809 5.89516 13.7901 5.83838 13.7523 5.78792C13.7018 5.75007 13.645 5.73114 13.5819 5.73114L3.87339 5.769C3.8103 5.769 3.75353 5.78793 3.70306 5.82578C3.65259 5.87625 3.62736 5.93302 3.62736 5.99611L3.62736 11.1564C3.62736 11.1564 5.75254 11.1185 6.84464 11.1185C7.93674 11.1185 8.12599 14.7397 6.84464 14.7398C5.56329 14.7398 0.000772762 14.7398 0.000772762 14.7398L0.000771898 4.85457C0.000771856 4.37514 0.120632 3.93354 0.360351 3.52981C0.60007 3.13869 0.921801 2.82326 1.32554 2.58354C1.72928 2.34382 2.17086 2.22396 2.6503 2.22396L14.9194 2.22395Z" fill="#C4F15A"/>
<path d="M0 0.899189C-7.82099e-07 -0.267861 3.65887 -0.331176 3.65887 0.899189C3.65887 2.12955 3.65887 5.50432 3.65887 5.50432H0C0 5.50432 7.82099e-07 2.06624 0 0.899189Z" fill="#C4F15A"/>
<path d="M74.5409 17.6357V7.06249H77.8695V17.6357H74.5409ZM76.2161 5.60487C75.694 5.60487 75.2589 5.43083 74.9108 5.08274C74.5772 4.72015 74.4104 4.28504 74.4104 3.77741C74.4104 3.25528 74.5772 2.82017 74.9108 2.47208C75.2589 2.124 75.694 1.94995 76.2161 1.94995C76.7382 1.94995 77.1661 2.124 77.4997 2.47208C77.8333 2.82017 78.0001 3.25528 78.0001 3.77741C78.0001 4.28504 77.8333 4.72015 77.4997 5.08274C77.1661 5.43083 76.7382 5.60487 76.2161 5.60487Z" fill="white"/>
<path d="M67.3523 17.6356V2.68958H70.6809V17.6356H67.3523ZM64.9592 9.89064V7.06243H73.074V9.89064H64.9592Z" fill="white"/>
<path d="M60.5126 17.6356V11.6093C60.5126 11.0582 60.3385 10.6158 59.9904 10.2822C59.6569 9.93413 59.229 9.76008 58.7069 9.76008C58.3443 9.76008 58.0252 9.83985 57.7496 9.9994C57.474 10.1444 57.2565 10.362 57.097 10.6521C56.9374 10.9276 56.8576 11.2467 56.8576 11.6093L55.5741 10.9784C55.5741 10.1517 55.7554 9.4265 56.118 8.80284C56.4805 8.17919 56.9809 7.70056 57.6191 7.36698C58.2717 7.01889 59.0042 6.84485 59.8164 6.84485C60.5996 6.84485 61.2885 7.0334 61.8832 7.41049C62.4923 7.77308 62.9709 8.25896 63.319 8.86811C63.6671 9.47726 63.8412 10.1444 63.8412 10.8696V17.6356H60.5126ZM53.5291 17.6356V7.0624H56.8576V17.6356H53.5291Z" fill="white"/>
<path d="M46.8313 17.875C45.6855 17.875 44.663 17.643 43.7638 17.1789C42.8791 16.7002 42.1829 16.0403 41.6753 15.1991C41.1676 14.3579 40.9138 13.4079 40.9138 12.3491C40.9138 11.2904 41.1604 10.3476 41.6535 9.52092C42.1611 8.67971 42.8428 8.01979 43.6985 7.54117C44.5542 7.06255 45.5187 6.82324 46.592 6.82324C47.6363 6.82324 48.5572 7.04805 49.3549 7.49766C50.1526 7.94728 50.7763 8.57093 51.2259 9.36863C51.69 10.1663 51.9221 11.0801 51.9221 12.1098C51.9221 12.2984 51.9076 12.5014 51.8786 12.719C51.8641 12.922 51.8278 13.1613 51.7698 13.4369L42.6543 13.4587V11.1743L50.3557 11.1526L48.9198 12.1098C48.9053 11.5007 48.8111 11.0003 48.637 10.6087C48.463 10.2026 48.2019 9.89802 47.8538 9.69497C47.5202 9.47741 47.1069 9.36863 46.6138 9.36863C46.0916 9.36863 45.6348 9.49192 45.2432 9.73848C44.8661 9.97054 44.5687 10.3041 44.3512 10.7392C44.1481 11.1743 44.0466 11.7037 44.0466 12.3274C44.0466 12.951 44.1554 13.4877 44.3729 13.9373C44.605 14.3724 44.9241 14.7132 45.3302 14.9598C45.7508 15.1919 46.2439 15.3079 46.8096 15.3079C47.3317 15.3079 47.8031 15.2209 48.2237 15.0468C48.6443 14.8583 49.0141 14.5827 49.3332 14.2201L51.1607 16.0476C50.6385 16.6567 50.0076 17.1136 49.2679 17.4182C48.5282 17.7227 47.716 17.875 46.8313 17.875Z" fill="white"/>
<path d="M32.0778 17.8751C30.961 17.8751 29.9095 17.6721 28.9233 17.266C27.9515 16.8598 27.1031 16.3015 26.3779 15.5908C25.6527 14.8656 25.0798 14.0244 24.6592 13.0671C24.2531 12.0954 24.05 11.0511 24.05 9.93435C24.05 8.81757 24.2604 7.78056 24.681 6.82332C25.1016 5.86607 25.6817 5.03211 26.4214 4.32143C27.1756 3.59625 28.0531 3.03786 29.0538 2.64626C30.0546 2.24016 31.1278 2.03711 32.2736 2.03711C33.5935 2.03711 34.79 2.27642 35.8633 2.75504C36.9511 3.23366 37.8503 3.89358 38.561 4.73479L36.2331 7.06263C35.74 6.42447 35.1598 5.94584 34.4927 5.62676C33.8255 5.30768 33.0713 5.14814 32.2301 5.14814C31.3309 5.14814 30.5259 5.3512 29.8153 5.7573C29.1046 6.1489 28.5462 6.70729 28.1401 7.43247C27.7485 8.14315 27.5527 8.97711 27.5527 9.93435C27.5527 10.8916 27.7485 11.7328 28.1401 12.458C28.5317 13.1832 29.0683 13.7488 29.75 14.1549C30.4317 14.561 31.2149 14.7641 32.0996 14.7641C32.9988 14.7641 33.7602 14.5973 34.3839 14.2637C35.0221 13.9156 35.5079 13.4225 35.8415 12.7843C36.1896 12.1317 36.3637 11.3412 36.3637 10.413L38.6262 11.9359L31.7732 11.8271V8.9336H39.8445V9.43397C39.8445 11.2759 39.5109 12.8278 38.8438 14.0896C38.1911 15.337 37.2774 16.2797 36.1026 16.9179C34.9423 17.556 33.6007 17.8751 32.0778 17.8751Z" fill="white"/>
</svg>
