<svg width="497" height="497" viewBox="0 0 497 497" fill="none" xmlns="http://www.w3.org/2000/svg">
<path d="M0 20C0 8.95429 8.95431 0 20 0H477C488.046 0 497 8.95431 497 20V477C497 488.046 488.046 497 477 497H20C8.95429 497 0 488.046 0 477V20Z" fill="#373737"/>
<path d="M346.5 118.255C354.1 118.255 361.1 120.155 367.5 123.955C373.7 127.755 378.7 132.755 382.5 138.955C386.3 145.355 388.2 152.355 388.2 159.955L388.201 359.254C388.201 366.854 386.301 373.754 382.501 379.954C378.701 386.354 373.701 391.454 367.501 395.254C361.101 399.054 354.101 400.954 346.501 400.954L152.013 400.954C144.413 400.954 137.413 399.054 131.013 395.254C124.613 391.454 119.513 386.354 115.713 379.954C111.913 373.754 110.013 366.854 110.013 359.254L110.013 327.151L165.1 327.151L165.1 342.151C165.1 343.151 165.5 343.951 166.3 344.55C167.1 345.35 168 345.751 169 345.751L325.3 345.75C326.3 345.75 327.2 345.35 328 344.55C328.6 343.95 328.9 343.15 328.9 342.15L328.899 177.45C328.899 176.45 328.599 175.55 327.999 174.75C327.199 174.15 326.299 173.85 325.299 173.85L171.4 174.451C170.4 174.451 169.5 174.751 168.7 175.351C167.9 176.151 167.5 177.051 167.5 178.051L167.5 259.85C167.5 259.85 201.188 259.25 218.5 259.25C235.812 259.25 238.812 316.654 218.5 316.654C198.188 316.654 110.012 316.654 110.012 316.654L110.012 159.955C110.012 152.355 111.912 145.355 115.712 138.955C119.512 132.755 124.612 127.755 131.012 123.955C137.412 120.155 144.412 118.255 152.012 118.255L346.5 118.255Z" fill="#C4F15A"/>
<path d="M110 97.254C110 78.754 168 77.7503 168 97.254C168 116.758 168 170.254 168 170.254H110C110 170.254 110 115.754 110 97.254Z" fill="#C4F15A"/>
</svg>
